<?xml version="1.0" encoding="UTF-8"?>
<svg width="417px" height="222px" viewBox="0 0 417 222" version="1.1" xmlns="http://www.w3.org/2000/svg" xmlns:xlink="http://www.w3.org/1999/xlink">
    <!-- Generator: Sketch 46.2 (44496) - http://www.bohemiancoding.com/sketch -->
    <title>logo-blank-big</title>
    <desc>Created with Sketch.</desc>
    <defs></defs>
    <g id="Assets" stroke="none" stroke-width="1" fill="none" fill-rule="evenodd">
        <g id="logo-blank-big">
            <g id="Group" transform="translate(4.000000, 0.000000)">
                <g id="Page-1">
                    <path d="M215.291559,206.1925 C180.417982,207.588929 145.466077,207.146071 110.660146,204.463929 C93.4779216,203.138929 75.7687664,201.953214 58.8535681,198.571071 C38.1679647,194.431786 25.2189905,182.399643 19.5295595,161.906786 C10.7675509,130.346071 13.7297578,93.9425 15.9158095,61.5925 C17.097844,44.1496429 22.0894474,30.4496429 39.9873009,25.5782143 C53.0466457,22.0246429 67.597775,23.1032143 81.0167147,22.0889286 C161.128034,16.0282143 241.488577,14.0996429 321.788594,16.8210714 C338.504413,17.4710714 356.477034,18.5067857 369.500775,30.3603571 C380.769266,40.6175 385.547249,55.9353571 388.253111,70.4996429 C390.695508,83.6675 390.649223,96.9889286 392.169491,110.246071 C394.035111,126.546071 399.094361,143.806786 395.537577,160.203214 C389.071991,190.0175 353.23712,192.163929 328.574611,195.678214 C291.020094,201.031786 253.198551,204.674643 215.291559,206.1925" id="Fill-1" fill="#FEFEFE"></path>
                    <g id="Group-5" transform="translate(0.000000, 0.933571)" fill="#000009">
                        <path d="M215.291559,205.258929 C180.417982,206.655357 145.466077,206.2125 110.660146,203.530357 C93.4779216,202.205357 75.7687664,201.019643 58.8535681,197.6375 C38.1679647,193.498214 25.2189905,181.466071 19.5295595,160.973214 C10.7675509,129.4125 13.7297578,93.0089286 15.9158095,60.6589286 C17.097844,43.2160714 22.0894474,29.5160714 39.9873009,24.6446429 C53.0466457,21.0910714 67.597775,22.1696429 81.0167147,21.1553571 C161.128034,15.0946429 241.488577,13.1660714 321.788594,15.8875 C338.504413,16.5375 356.477034,17.5732143 369.500775,29.4267857 C380.769266,39.6839286 385.547249,55.0017857 388.253111,69.5660714 C390.695508,82.7339286 390.649223,96.0553571 392.169491,109.3125 C394.035111,125.6125 399.094361,142.873214 395.537577,159.269643 C389.071991,189.083929 353.23712,191.230357 328.574611,194.744643 C291.020094,200.098214 253.198551,203.741071 215.291559,205.258929 M406.51768,109.3125 C404.331628,90.7196429 404.609335,72.0410714 399.343585,53.8839286 C395.042689,39.0553571 387.658534,25.0732143 375.23293,15.5553571 C359.873603,3.79107143 340.430559,2.21964286 321.788594,1.49464286 C234.994508,-1.44821429 149.264965,3.81607143 62.6666974,7.82321429 C32.3539216,9.22678571 6.473775,17.5732143 2.3117319,51.7125 C0.161283621,69.3482143 0.218249138,87.6946429 0.0402318966,105.448214 C-0.162707759,125.698214 0.193326724,147.348214 6.25659397,166.873214 C10.190775,179.533929 17.005275,191.516071 27.4798095,199.826786 C43.0990422,212.216071 64.2261284,213.176786 83.2526112,215.323214 C127.062654,220.266071 171.253654,221.4125 215.291559,219.651786 C258.133189,217.941071 300.88937,213.523214 343.268154,207.023214 C369.276473,203.033929 399.429034,196.141071 408.215965,167.598214 C414.108335,148.451786 408.782059,128.551786 406.51768,109.3125" id="Fill-3"></path>
                    </g>
                    <path d="M148.343191,126.743214 C146.719674,111.986071 145.067674,98.7503571 143.383631,87.0503571 C141.82776,75.8646429 140.011984,68.2575 137.939864,64.2253571 C135.864183,60.1967857 132.300278,57.2717857 127.244588,55.4503571 C123.039821,53.9860714 120.159502,53.7753571 118.368648,56.0396429 C117.517726,57.1182143 116.908907,58.7575 116.52439,61.0860714 C115.709071,66.0610714 116.962312,71.1717857 117.161691,76.1432143 C117.617416,87.5860714 118.190631,99.0217857 118.785209,110.453929 C120.665071,146.6075 121.99664,165.6575 122.772795,167.6075 C124.976648,172.943214 129.704786,174.436071 136.96789,172.093214 C140.724053,171.053929 144.0957,169.300357 147.079269,166.825357 C148.503407,165.6575 149.475381,164.714643 149.995191,164.000357 C150.511441,163.286071 150.838993,162.4075 150.967166,161.364643 C151.095338,160.328929 151.095338,158.5075 150.967166,155.903929 C150.838993,151.221786 149.963148,141.503929 148.343191,126.743214" id="Fill-6" fill="#000009"></path>
                    <path d="M370.640797,146.312143 C367.557539,143.93 364.232177,141.887143 361.131116,139.526429 C358.450177,137.487143 355.171099,136.033571 352.668177,133.833571 C350.695746,132.097857 347.117599,128.233571 347.313418,125.358571 C347.480754,122.933571 350.353953,119.897857 351.532427,117.776429 C356.52403,108.808571 364.908642,102.440714 369.141892,92.8514286 C370.537547,89.6835714 371.096522,83.6121429 366.218849,83.3871429 C362.359435,83.2085714 358.553427,86.8514286 355.641065,88.9478571 C351.760289,91.7514286 348.705513,95.5085714 345.636496,99.1621429 C344.468703,100.551429 339.882978,106.740714 338.035159,104.051429 C336.717832,102.126429 337.177116,97.4942857 337.105909,95.1585714 C336.995539,91.5264286 336.963496,87.8942857 336.942134,84.2585714 C336.910091,71.8728571 336.717832,64.1014286 336.354677,60.9442857 C335.995082,57.7907143 335.108556,55.1835714 333.695099,53.1264286 C332.502384,51.6085714 330.768496,50.4121429 328.489875,49.53 C326.214815,48.6514286 324.342073,48.4835714 322.875211,49.03 C321.810668,49.3478571 321.137763,51.5157143 320.852935,55.5335714 C320.528944,60.0764286 317.794599,78.4585714 312.646341,110.68 C312.621418,110.837143 312.596496,110.990714 312.571573,111.147857 C310.592022,123.258571 308.633832,135.38 306.917746,147.533571 C305.796237,155.483571 303.382323,165.408571 308.858134,172.301429 C310.88397,174.862143 312.867082,176.208571 314.80747,176.344286 C318.944591,176.640714 322.579703,174.88 325.709246,171.062143 C328.838789,167.247857 330.971435,161.922857 332.107185,155.094286 C332.591392,152.183571 332.854858,139.840714 337.479746,141.240714 C339.701401,141.912143 342.642246,144.747857 344.586194,146.076429 C347.907996,148.340714 351.194194,150.662143 354.480392,152.976429 C358.581909,155.862143 362.662065,158.772857 366.902435,161.444286 C369.565573,163.119286 375.066306,167.569286 378.316901,164.908571 C380.691651,162.965714 379.363642,158.015714 378.640892,155.594286 C377.355608,151.305 374.026685,148.926429 370.640797,146.312143" id="Fill-8" fill="#000009"></path>
                    <path d="M199.604324,129.491071 C198.237152,134.780357 185.451953,153.241071 176.85016,155.341071 C176.280505,155.698214 175.81054,155.755357 175.433143,155.5375 C173.040591,155.583929 171.093083,154.048214 169.996497,150.166071 C168.661367,145.455357 172.584867,134.866071 174.179902,130.641071 C175.048626,128.348214 175.942272,126.066071 176.896445,123.808929 C178.252936,120.594643 179.723359,117.423214 181.400281,114.3625 C183.977971,109.666071 189.571272,100.423214 196.278962,105.926786 C202.235419,110.8125 201.252764,123.116071 199.604324,129.491071 M222.216074,118.230357 C221.706945,109.7125 223.544083,96.0482143 215.97835,90.2303571 C208.34141,84.3589286 195.919367,78.3589286 186.374083,82.6589286 C185.259695,83.1625 184.148867,83.8375 183.04516,84.7196429 C179.378005,87.6589286 176.511928,92.3732143 173.880833,96.1982143 C168.807341,103.558929 164.965729,110.283929 162.352436,116.369643 C157.706186,127.123214 155.238867,136.7125 154.943359,145.130357 C154.65141,153.551786 156.470747,159.951786 160.408488,164.330357 C164.342669,168.708929 170.003617,170.5375 177.380652,169.816071 C182.062505,169.3375 186.249471,167.576786 189.937988,164.526786 C192.711497,162.233929 201.530471,149.1375 202.060962,158.773214 C202.192695,162.216071 203.057859,165.408929 204.652893,168.351786 C206.247928,171.294643 208.259522,173.569643 210.691238,175.166071 C212.845247,176.573214 215.454979,177.005357 218.516876,176.455357 C221.575212,175.908929 223.811109,174.555357 225.213884,172.391071 C226.378117,170.869643 226.954893,169.094643 226.951333,167.058929 C226.947772,165.030357 226.385238,159.5125 225.263729,150.505357 C223.764824,137.383929 222.750126,126.626786 222.216074,118.230357" id="Fill-10" fill="#000009"></path>
                    <path d="M89.4116517,133.5475 C89.2051517,134.136786 88.9844103,134.718929 88.7529879,135.2975 C85.5664793,143.318929 80.4751862,149.968929 74.7038672,150.729643 C66.9886,151.743929 66.2516086,137.636786 66.0308672,132.586786 C65.842169,128.240357 65.5858241,124.0225 66.4403069,119.733214 C67.1737379,116.054643 69.7585483,113.083214 72.5641,110.711786 C75.8146948,107.968929 82.4903414,104.365357 86.9300914,105.676071 C91.3983241,106.9975 92.2243241,113.579643 92.377419,117.393929 C92.5946,122.886786 91.2381086,128.408214 89.4116517,133.5475 M107.302384,92.0725 C100.786953,85.6117857 91.0529707,85.1689286 82.6007121,87.0332143 C74.6362207,88.7903571 66.5756,91.5225 60.7793586,97.6903571 C59.4549103,90.9010714 57.6782983,84.1582143 56.2790828,77.3653571 C55.3071086,72.6332143 54.6342034,67.7510714 53.3845224,63.0832143 C52.0244707,57.9760714 49.4895052,50.3725 44.9465052,47.3082143 C40.1578414,44.0796429 34.2156259,43.2903571 32.3393241,50.0939286 C30.7193672,55.9617857 32.8626948,62.7546429 33.8061862,68.5725 C37.1742724,89.3867857 39.6771948,111.076071 42.6216,132.240357 C44.6118328,146.568929 44.4088931,178.701071 66.3121345,177.093929 C74.0167207,176.526071 81.3581517,173.365357 87.649281,168.9725 C99.2026,160.904643 108.18179,148.626071 111.913031,134.811786 C114.547686,125.054643 115.014091,114.729643 113.03454,104.879643 C112.162255,100.529643 110.510255,95.2582143 107.302384,92.0725" id="Fill-12" fill="#000009"></path>
                    <path d="M296.658612,90.1996429 C294.205534,87.1710714 290.986983,85.0425 287.163172,84.2282143 C284.432388,83.6460714 281.363371,83.6317857 277.870672,84.0246429 C271.775362,84.7067857 265.772621,87.2996429 260.656405,90.6282143 C256.793431,93.1389286 254.650103,97.1710714 250.755086,93.1282143 C247.582819,89.8353571 245.467974,85.8675 240.323276,85.2317857 C227.919034,83.6960714 231.169629,114.3675 230.956009,120.338929 C230.646259,145.449643 230.770871,158.903214 231.322724,160.706786 C232.016991,163.521071 233.291595,165.521071 235.153655,166.713929 C237.008595,167.913929 240.202224,168.813929 244.730983,169.4175 C248.782655,169.963929 253.831224,168.306786 255.03106,164.263929 C256.796991,158.310357 257.491259,152.081786 258.242491,145.9425 C259.887371,132.456786 257.640793,116.299643 268.667181,105.688929 C270.913759,103.528214 276.022853,99.6960714 279.447905,101.028214 C283.595707,102.6425 283.442612,109.249643 282.983328,112.774643 C282.310422,117.9425 280.263224,122.796071 278.618345,127.703214 C276.660155,133.538929 274.4385,139.406786 273.138974,145.435357 C271.365922,153.656786 269.222595,160.663929 273.872405,168.446071 C276.60319,173.013929 284.496474,179.399643 290.381724,177.774643 C295.761405,176.285357 296.694216,165.799643 297.641267,161.331786 C301.044957,144.253214 302.372966,125.935357 301.482879,108.374643 C301.151767,101.935357 300.923905,95.4710714 296.658612,90.1996429" id="Fill-14" fill="#000009"></path>
                    <path d="M387.596584,6.48285714 L388.358497,6.48285714 C388.896109,6.48285714 389.430161,6.45428571 389.967773,6.45428571 C390.249041,6.45428571 390.501825,6.45428571 390.786653,6.48285714 C391.772868,6.56857143 392.787566,6.67928571 393.777342,6.73642857 L394.453808,6.73642857 L394.792041,6.73642857 C395.073308,6.73642857 395.329653,6.65428571 395.61092,6.65428571 C395.667885,6.65428571 395.753334,6.67928571 395.838782,6.67928571 C396.173454,6.73642857 396.372834,6.67928571 396.682584,6.765 C397.020816,6.85071429 397.305644,6.82214286 397.615394,7.02214286 C398.544644,7.64357143 398.658575,9.28642857 398.911359,10.2757143 C398.996808,10.5864286 399.139222,10.8435714 399.278075,11.1257143 C399.335041,11.2114286 399.392006,11.4078571 399.530859,11.465 C399.673273,11.465 399.758722,11.3221429 399.84417,11.2114286 C400.068472,10.8685714 400.267851,10.5292857 400.46367,10.19 C400.887351,9.54 401.143696,8.80428571 401.563816,8.18285714 C401.763196,7.89714286 401.930532,7.47214286 402.129911,7.19 C402.439661,6.82214286 402.834859,6.54 403.315506,6.54 C403.511325,6.54 403.739187,6.59714286 403.963489,6.70785714 C404.782368,7.10428571 404.725403,8.465 404.924782,9.22928571 C405.035153,9.82214286 405.063635,10.2757143 405.149084,10.8971429 C405.177566,11.3221429 405.234532,11.9185714 405.291497,12.3685714 C405.344903,12.9078571 405.373385,13.4471429 405.487316,13.9828571 C405.572765,14.7185714 405.62973,15.5114286 405.686696,16.2471429 L405.686696,16.4471429 C405.686696,17.24 405.373385,17.9757143 404.529584,18.09 L404.444135,18.09 C403.963489,18.09 403.511325,17.69 403.343989,17.2685714 C403.062722,16.5042857 403.087644,15.5971429 403.002196,14.8042857 C402.948791,14.3221429 402.920308,13.815 402.806377,13.3042857 C402.749411,12.8792857 402.777894,12.4257143 402.749411,12.0007143 C402.749411,11.9185714 402.749411,11.6614286 402.610558,11.6614286 C402.468144,11.6614286 402.32573,11.8614286 402.243842,11.9757143 C401.987497,12.2864286 401.848644,12.6542857 401.677747,13.0221429 C401.39648,13.5864286 401.197101,14.0114286 401.001282,14.6364286 C400.748497,15.5114286 400.830385,16.3328571 400.125437,17.0685714 C399.926058,17.2685714 399.730239,17.4114286 399.477454,17.4364286 C399.392006,17.4364286 399.306558,17.465 399.22467,17.465 C398.797428,17.465 398.377308,17.2685714 398.177928,16.9007143 C398.007032,16.6185714 398.007032,16.2471429 397.896661,15.9364286 C397.757808,15.4828571 397.529946,15.0864286 397.362609,14.6364286 C397.220196,14.2114286 397.191713,13.815 396.992334,13.39 C396.796515,12.9935714 396.682584,12.54 396.429799,12.1721429 C396.344351,12.0578571 396.173454,11.8614286 396.006118,11.8614286 L395.949153,11.8614286 C395.838782,11.9185714 395.838782,12.1435714 395.838782,12.2578571 C395.806739,12.5971429 395.753334,12.9364286 395.753334,13.3042857 C395.724851,14.0685714 395.553954,14.8042857 395.411541,15.5685714 C395.329653,15.9364286 395.358135,16.3042857 395.158756,16.6185714 C394.934454,17.0435714 394.453808,17.3542857 393.944678,17.3542857 C393.805825,17.3542857 393.634928,17.3221429 393.496075,17.2685714 C392.873015,16.9864286 392.705678,16.4757143 392.705678,15.8792857 C392.705678,15.115 393.015428,14.1828571 393.072394,13.5864286 C393.125799,13.0792857 393.182765,12.5685714 393.211247,12.0578571 C393.23973,11.6614286 393.464032,10.4185714 393.496075,9.99357143 C393.496075,9.90785714 393.520997,9.85071429 393.520997,9.79357143 C393.520997,9.62571429 393.464032,9.48285714 393.23973,9.45428571 C393.125799,9.42571429 393.015428,9.39714286 392.901497,9.39714286 C392.563265,9.39714286 392.196549,9.51142857 391.858316,9.51142857 C391.573489,9.51142857 391.349187,9.54 391.124885,9.54 C390.925506,9.54 390.729687,9.51142857 390.501825,9.45428571 C390.362972,9.42571429 390.135109,9.34 389.939291,9.34 C389.825359,9.34 389.739911,9.36857143 389.658023,9.45428571 C389.572575,9.56857143 389.544092,9.765 389.544092,9.99357143 C389.544092,10.5578571 389.711428,11.2935714 389.739911,11.5792857 C389.796877,12.3435714 389.796877,13.1078571 389.853842,13.8721429 C389.910808,14.4364286 389.967773,14.9757143 389.967773,15.54 C389.967773,15.7685714 389.967773,15.9935714 389.939291,16.2185714 C389.825359,16.9257143 389.120411,17.6078571 388.330015,17.6078571 L388.159118,17.6078571 C387.172903,17.4935714 387.058972,16.7007143 387.058972,15.9078571 L387.058972,15.4828571 C387.058972,15.0578571 387.087454,14.6078571 387.087454,14.1828571 C387.087454,13.3042857 387.058972,12.4542857 386.977084,11.5792857 C386.920118,11.04 386.945041,10.4471429 386.720739,9.90785714 C386.606808,9.59714286 386.354023,9.51142857 386.072756,9.51142857 C385.901859,9.51142857 385.734523,9.54 385.563627,9.56857143 C385.396291,9.59714286 385.196911,9.59714286 385.026015,9.59714286 C384.744747,9.59714286 384.491963,9.56857143 384.239178,9.42571429 C383.730049,9.14357143 383.334851,8.49357143 383.334851,7.92571429 C383.334851,7.55785714 383.477265,7.24714286 383.868903,7.02214286 C384.630816,6.56857143 385.649075,6.62571429 386.467954,6.54 C386.83467,6.48285714 387.229868,6.48285714 387.596584,6.48285714" id="Fill-16" fill="#000009"></path>
                </g>
            </g>
        </g>
    </g>
</svg>